<?xml version="1.0" standalone="no"?>
<!DOCTYPE svg PUBLIC "-//W3C//DTD SVG 20010904//EN"
 "http://www.w3.org/TR/2001/REC-SVG-20010904/DTD/svg10.dtd">
<svg version="1.0" xmlns="http://www.w3.org/2000/svg"
 width="500.000000pt" height="500.000000pt" viewBox="0 0 500.000000 500.000000"
 preserveAspectRatio="xMidYMid meet">

<g transform="translate(0.000000,500.000000) scale(0.100000,-0.100000)"
fill="#000000" stroke="none">
<path d="M3599 3787 c-68 -46 -75 -137 -16 -204 l32 -36 0 -576 -1 -576 -27
-90 c-15 -49 -50 -136 -77 -193 l-50 -103 32 -40 c17 -21 34 -39 37 -39 12 0
84 123 113 192 74 180 105 390 87 578 -7 63 -14 280 -16 481 l-4 366 34 21
c24 14 40 34 52 66 17 44 17 48 1 91 -31 81 -125 111 -197 62z"/>
<path d="M2535 3486 c-45 -20 -85 -71 -85 -110 l0 -33 -91 -17 c-275 -51 -500
-206 -607 -421 -33 -69 -58 -141 -67 -202 -6 -39 -11 -45 -50 -62 -61 -27 -79
-58 -73 -128 4 -48 10 -61 37 -85 24 -22 41 -28 75 -28 42 0 45 -2 56 -36 15
-45 69 -164 74 -164 2 0 -4 33 -15 73 -10 39 -21 104 -25 143 -6 69 -6 71 23
95 23 19 32 38 42 89 18 92 51 168 112 255 76 110 166 177 297 219 56 19 70
41 58 91 -7 29 5 36 113 63 53 13 73 14 122 3 43 -9 70 -9 99 -1 33 9 45 8 78
-9 51 -26 129 -88 223 -178 42 -40 84 -73 93 -73 9 0 59 38 111 86 85 77 96
84 116 73 12 -6 43 -9 71 -7 154 15 158 240 5 265 -73 11 -145 -50 -148 -127
-1 -30 -12 -45 -75 -104 l-73 -69 -63 58 c-35 31 -74 64 -88 73 -14 9 -40 29
-58 44 -19 16 -51 40 -73 53 -33 21 -39 31 -39 59 0 39 -36 88 -81 111 -34 18
-55 18 -94 1z"/>
<path d="M3487 3182 c-7 -42 -46 -100 -80 -119 -12 -7 -37 -12 -54 -13 l-33 0
0 -425 0 -425 36 -47 c20 -27 41 -48 46 -48 14 0 64 130 94 240 23 88 24 99
24 483 0 325 -2 392 -14 392 -8 0 -16 -15 -19 -38z"/>
<path d="M1589 3163 c-23 -6 -114 -202 -138 -299 -48 -188 -50 -376 -5 -551
26 -107 107 -282 166 -360 l41 -53 -47 -50 c-25 -27 -46 -54 -46 -59 0 -18
112 -131 130 -131 10 0 41 25 68 57 l50 56 73 -47 c91 -58 193 -108 279 -135
132 -42 350 -61 481 -43 l47 7 -44 61 -44 61 -117 6 c-143 6 -237 30 -365 91
-209 99 -401 317 -468 531 -24 76 -56 92 -105 53 -27 -21 -28 -21 -41 -3 -19
25 -18 26 20 55 30 22 32 28 25 55 -14 46 -11 200 6 302 16 97 51 205 91 281
13 25 24 52 24 62 0 35 -43 63 -81 53z"/>
<path d="M2476 3121 c-3 -4 25 -11 62 -14 75 -6 155 -33 213 -72 47 -31 69
-33 43 -4 -42 46 -180 99 -260 99 -29 0 -55 -4 -58 -9z"/>
<path d="M2453 3050 c-34 -5 -52 -17 -105 -71 -35 -35 -59 -61 -54 -56 6 4 37
7 71 7 59 1 61 2 124 59 l65 58 -30 4 c-16 3 -48 2 -71 -1z"/>
<path d="M3195 2999 c-22 -22 -55 -49 -73 -61 -23 -14 -31 -25 -27 -37 51
-128 50 -121 49 -276 0 -144 -1 -154 -32 -234 -18 -47 -32 -86 -32 -88 0 -2
36 -3 80 -3 l80 0 0 370 c0 204 -1 370 -2 370 -2 -1 -21 -19 -43 -41z"/>
<path d="M2640 2981 c-14 -15 -50 -53 -80 -84 l-54 -57 58 0 c57 0 58 1 122
62 l65 62 -28 23 c-36 29 -52 27 -83 -6z"/>
<path d="M2143 2934 c-18 -13 -42 -39 -54 -57 -16 -23 -6 -16 34 23 52 50 62
60 55 60 -2 0 -17 -12 -35 -26z"/>
<path d="M2904 2916 c-3 -7 9 -37 26 -66 47 -81 63 -156 58 -280 -5 -102 -10
-124 -65 -247 -3 -8 3 -13 16 -13 17 0 29 14 51 63 65 141 63 352 -6 490 -25
49 -40 67 -54 67 -12 0 -23 -6 -26 -14z"/>
<path d="M2712 2768 c-9 -9 -12 -84 -12 -275 0 -145 3 -263 6 -263 4 0 33 18
66 40 32 22 72 43 88 47 l30 6 0 212 c0 251 2 245 -101 245 -37 0 -70 -5 -77
-12z"/>
<path d="M2416 2744 c-3 -9 -6 -226 -6 -484 l0 -468 61 -7 c35 -4 65 -3 70 2
5 5 21 72 35 149 23 125 26 172 31 460 4 231 2 327 -6 343 -11 19 -20 21 -95
21 -67 0 -85 -3 -90 -16z"/>
<path d="M2136 2688 c-14 -19 -16 -75 -16 -403 0 -209 4 -385 8 -392 9 -14
122 -67 165 -77 l27 -6 0 433 c0 504 8 467 -103 467 -57 0 -68 -3 -81 -22z"/>
<path d="M1852 2488 c-8 -8 -12 -61 -12 -174 l0 -163 59 -73 c32 -41 77 -89
100 -107 l41 -33 0 265 c0 228 -2 268 -16 281 -19 20 -153 23 -172 4z"/>
<path d="M2821 2224 c-21 -17 -28 -29 -21 -37 55 -68 60 -77 60 -114 0 -21 -5
-44 -10 -49 -28 -28 23 -64 60 -44 19 10 20 17 14 75 -6 55 -4 65 9 65 29 0
67 -58 67 -102 0 -32 -7 -47 -34 -74 -29 -29 -41 -34 -80 -34 -38 0 -52 5 -72
27 -32 34 -39 67 -26 111 10 32 9 38 -19 74 -36 44 -45 46 -80 15 -25 -20 -28
-32 -43 -167 -24 -217 -28 -198 70 -330 48 -63 98 -132 112 -155 14 -22 62
-89 107 -150 45 -60 90 -125 101 -143 22 -38 77 -58 118 -42 30 11 412 292
474 348 31 29 42 46 42 68 0 43 10 28 -340 499 -52 71 -99 136 -103 145 -7 14
-35 19 -160 29 -207 15 -211 15 -246 -15z m228 -308 c9 -10 20 -11 51 -2 32 8
50 7 83 -4 49 -17 56 -36 27 -73 -18 -22 -25 -25 -46 -17 -50 19 -109 -16
-102 -61 5 -37 29 -44 101 -30 60 12 69 11 110 -7 25 -11 53 -32 62 -46 26
-39 30 -97 10 -140 -13 -28 -15 -39 -6 -50 9 -11 6 -18 -15 -35 -29 -23 -40
-26 -48 -12 -3 4 -36 6 -73 4 -58 -5 -72 -2 -93 15 l-25 20 21 29 c19 24 28
28 64 25 56 -4 90 18 90 58 0 40 -27 53 -82 40 -62 -14 -105 -12 -139 5 -62
32 -87 121 -53 186 8 17 12 39 9 50 -4 13 0 28 11 40 20 23 28 24 43 5z"/>
<path d="M1190 1521 c-231 -232 -280 -286 -285 -315 -13 -66 32 -154 94 -186
44 -22 110 -26 144 -9 28 15 123 106 371 357 l200 203 -114 114 c-63 63 -119
115 -123 115 -5 0 -134 -126 -287 -279z m244 -170 c3 -5 -1 -14 -8 -20 -12
-10 -14 -9 -11 6 2 10 4 19 4 21 2 5 10 2 15 -7z m-41 -48 c-3 -7 -6 -13 -8
-13 -2 0 -5 6 -8 13 -3 8 1 14 8 14 7 0 11 -6 8 -14z"/>
</g>
</svg>
